# AST/ASF file generated using VICON BodyLanguage
# -----------------------------------------------
:version 1.10
:name VICON
:units
  mass 1.0
  length 0.45
  angle deg
:documentation
   .ast/.asf automatically generated from VICON data using
   VICON BodyBuilder and BodyLanguage model FoxedUp or BRILLIANT.MOD
:root
   order TX TY TZ RX RY RZ
   axis XYZ
   position 0 0 0  
   orientation 0 -0 0 
:bonedata
  begin
     id 1 
     name lhipjoint
     direction 0.432694 -0.693742 0.575759 
     length 2.19277 
     axis 0 -0 0  XYZ
  end
  begin
     id 2 
     name lfemur
     direction 0.34202 -0.939693 0  
     length 6.69022  
     axis 0 -0 20  XYZ
    dof rx ry rz
    limits (-160.0 20.0)
           (-70.0 70.0)
           (-60.0 70.0)
  end
  begin
     id 3 
     name ltibia
     direction 0.34202 -0.939693 0   
     length 6.50337   
     axis 0 -0 20   XYZ
    dof rx
    limits (-10.0 170.0)
  end
  begin
     id 4 
     name lfoot
     direction 0.158999 -0.435969 0.885805   
     length 2.70564   
     axis -90 -1.13533e-015 20   XYZ
    dof rx rz
    limits (-45.0 90.0)
           (-70.0 20.0)
  end
  begin
     id 5 
     name ltoes
     direction -0.00592919 0.00964381 0.999936   
     length 1.29929   
     axis -90 -1.13533e-015 20   XYZ
    dof rx
    limits (-90.0 20.0)
  end
  begin
     id 6 
     name rhipjoint
     direction -0.414359 -0.700339 0.581234   
     length 2.17212  
     axis 0 -0 0  XYZ 
  end
  begin
     id 7 
     name rfemur
     direction -0.34202 -0.939693 0   
     length 7.17659   
     axis 0 -0 -20   XYZ
    dof rx ry rz
    limits (-160.0 20.0)
           (-70.0 70.0)
           (-70.0 60.0)
  end
  begin
     id 8 
     name rtibia
     direction -0.34202 -0.939693 0   
     length 6.36669   
     axis 0 -0 -20   XYZ
    dof rx
    limits (-10.0 170.0)
 end
 begin
     id 9 
     name rfoot
     direction -0.137064 -0.37658 0.916188   
     length 2.22351  
     axis -90 1.13533e-015 -20   XYZ
    dof rx rz
    limits (-45.0 90.0)
           (-20.0 70.0)
  end
  begin
     id 10 
     name rtoes
     direction -0.000784077 -0.00289101 0.999996   
     length 1.09522   
     axis -90 1.13533e-015 -20   XYZ
    dof rx
    limits (-90.0 20.0)
  end
  begin
     id 11 
     name lowerback
     direction -0.0176242 0.984912 -0.172157   
     length 1.65301   
     axis 0 -0 0   XYZ
    dof rx ry rz
    limits (-20.0 45.0)
           (-30.0 30.0)
           (-30.0 30.0)
  end
  begin
     id 12 
     name upperback
     direction -0.00218128 0.998776 -0.0494072   
     length 1.67776   
     axis 0 -0 0   XYZ
    dof rx ry rz
    limits (-20.0 45.0)
           (-30.0 30.0)
           (-30.0 30.0)
  end
  begin
     id 13 
     name thorax
     direction 0.00544186 0.999658 0.0255711   
     length 1.72293   
     axis 0 -0 0   XYZ
    dof rx ry rz
    limits (-20.0 45.0)
           (-30.0 30.0)
           (-30.0 30.0)
  end
  begin
     id 14 
     name lowerneck
     direction -0.105325 0.983841 0.144785   
     length 2.14226   
     axis 0 -0 0   XYZ
    dof rx ry rz
    limits (-20.0 45.0)
           (-30.0 30.0)
           (-30.0 30.0)
  end
  begin
     id 15 
     name upperneck
     direction 0.0547957 0.988053 -0.144041   
     length 2.17508   
     axis 0 -0 0   XYZ
    dof rx ry rz
    limits (-20.0 45.0)
           (-30.0 30.0)
           (-30.0 30.0)
  end
  begin
     id 16
     name head
     direction 0.0247488 0.997534 -0.0656813  
     length 2.20048  
     axis 0 -0 0   XYZ
    dof rx ry rz
    limits (-20.0 45.0)
           (-30.0 30.0)
           (-30.0 30.0)
  end
  begin
     id 17 
     name lclavicle
     direction 0.820559 0.567247 -0.0701026  
     length 4.09615  
     axis 0 -0 0   XYZ
    dof ry rz
    limits (-20.0 10.0)
           (0.0 20.0)
  end
  begin
     id 18 
     name lhumerus
     direction 0.999977 -0.0067566 -9.96392e-005   
     length 4.59333   
     axis -180 -30 -90   XYZ
    dof rx ry rz
    limits (-60.0 90.0)
           (-90.0 90.0)
           (-90.0 90.0)
  end
  begin
     id 19
     name lradius
     direction 1 -4.48982e-011 -2.53425e-027   
     length 2.81151   
     axis -180 -30 -90   XYZ
    dof rx
    limits (-10.0 170.0)
  end
  begin
     id 20
     name lwrist
     direction 1 -4.48939e-011 -7.39254e-028   
     length 1.40576   
     axis 2.56395e-016 90 90   XYZ
    dof ry
    limits (-180.0 0.0)
 end
  begin
     id 21 
     name lhand
     direction 1 -4.48939e-011 -1.47851e-027   
     length 0.895651   
     axis 9.43423e-016 90 90   XYZ
    dof rx rz
    limits (-90.0 90.0)
           (-45.0 45.0)
  end
  begin
     id 22 
     name lfingers
     direction 1 -4.48978e-011 -2.95702e-027   
     length 0.722097   
     axis 1.88685e-015 90 90   XYZ
    dof rx
    limits (0.0 90.0)
  end
  begin
     id 23
     name lthumb
     direction 0.707107 -6.34931e-011 0.707107   
     length 1.03679   
     axis -90 45 -9.86935e-015   XYZ
    dof rx rz
    limits (-45.0 45.0)
           (-45.0 45.0)
  end
  begin
     id 24 
     name rclavicle
     direction -0.831414 0.553102 -0.0531864   
     length 4.24872  
     axis 0 -0 0   XYZ 
    dof ry rz
    limits (-10.0 20.0)
           (-20.0 0.0)
  end
  begin
     id 25 
     name rhumerus
     direction -0.999916 -0.000939607 0.0129331  
     length 4.74834   
     axis -180 30 90   XYZ
    dof rx ry rz
    limits (-90.0 60.0)
           (-90.0 90.0)
           (-90.0 90.0)
  end
  begin
     id 26 
     name rradius
     direction -1 -4.48956e-011 -1.31752e-027   
     length 2.79907   
     axis -180 30 90   XYZ
    dof rx
    limits (-10.0 170.0)
  end
  begin
     id 27 
     name rwrist
     direction -1 -4.4897e-011 -7.39254e-028   
     length 1.39954   
     axis 2.56395e-016 -90 -90   XYZ
    dof ry
    limits (-180.0 0.0)
  end
  begin
     id 28
     name rhand
     direction -0.999997 -0.00250697 0.000800838   
     length 0.953304   
     axis 9.43423e-016 -90 -90   XYZ
    dof rx rz
    limits (-90.0 90.0)
           (-45.0 45.0)
  end
  begin
     id 29
     name rfingers
     direction -1 -4.48954e-011 -2.95702e-027   
     length 0.763342   
     axis 1.88685e-015 -90 -90   XYZ
    dof rx
    limits (0.0 90.0)
  end
  begin
     id 30
     name rthumb
     direction -0.709701 -0.00217037 0.7045   
     length 1.10115   
     axis -90 -45 9.86935e-015   XYZ
    dof rx rz
    limits (-45.0 45.0)
           (-45.0 45.0)
  end
:hierarchy
  begin
    root lhipjoint rhipjoint lowerback
    lhipjoint lfemur
    lfemur ltibia
    ltibia lfoot
    lfoot ltoes
    rhipjoint rfemur
    rfemur rtibia
    rtibia rfoot
    rfoot rtoes
    lowerback upperback
    upperback thorax
    thorax lowerneck lclavicle rclavicle
    lowerneck upperneck
    upperneck head
    lclavicle lhumerus
    lhumerus lradius
    lradius lwrist
    lwrist lhand lthumb
    lhand lfingers
    rclavicle rhumerus
    rhumerus rradius
    rradius rwrist
    rwrist rhand rthumb
    rhand rfingers
  end

#!OML:ASF G:\ViconDB\ViconDB\414\test\team2\shane.ASF
:FULLY-SPECIFIED
:DEGREES
63
root 3.3168 16.7208 -29.2324 -0.453704 -11.6174 -6.19863
lowerback 8.85369 2.0592 1.28565
upperback 5.46657 2.79407 -1.86938
thorax 0.864341 1.45057 -2.86995
lowerneck -13.856 -2.9225 -9.14758
upperneck 40.4333 2.58995 -9.5828
head 17.5198 -1.73029 -2.32516
rclavicle -4.29375e-014 -1.43125e-014
rhumerus -18.1334 8.91112 -64.6318
rradius 119.596
rwrist -10.2779
rhand -24.2135 -15.5523
rfingers 7.12502
rthumb 2.27112 -45.52
lclavicle -3.4191e-014 1.43125e-014
lhumerus -43.9412 -14.7854 90.0294
lradius 35.6112
lwrist -14.1007
lhand -39.2624 6.87196
lfingers 7.12502
lthumb -12.2567 36.4928
rfemur 15.7153 -6.80278 17.5402
rtibia 36.4863
rfoot -3.75622 8.8998
rtoes -22.062
lfemur -18.7166 8.00162 -8.70235
ltibia 37.1214
lfoot -21.1329 -9.81453
ltoes -4.90382
64
root 3.31696 16.7316 -29.0805 -0.403348 -11.1858 -6.15794
lowerback 8.75681 1.98967 0.931476
upperback 5.68551 2.67853 -1.97697
thorax 1.12655 1.3899 -2.76498
lowerneck -13.8729 -2.99948 -9.51814
upperneck 40.1774 2.61558 -9.67393
head 17.3958 -1.77455 -2.28049
rclavicle -4.05521e-014 6.36111e-015
rhumerus -18.3457 7.34551 -64.934
rradius 120.279
rwrist -11.0703
rhand -24.7044 -16.4157
rfingers 7.12502
rthumb 1.79706 -46.3878
lclavicle -4.05521e-014 6.36111e-015
lhumerus -43.5853 -15.0921 89.6555
lradius 36.6204
lwrist -13.4878
lhand -38.9108 6.51038
lfingers 7.12502
lthumb -11.9177 36.1512
rfemur 13.7213 -7.56432 17.2815
rtibia 40.5167
rfoot -1.71626 8.70754
rtoes -19.7926
lfemur -18.2829 7.8262 -8.89403
ltibia 37.0393
lfoot -21.6673 -9.80729
ltoes -4.92903
65
root 3.31581 16.7396 -28.9272 -0.431237 -10.915 -6.06203
lowerback 8.89486 1.93053 0.574881
upperback 5.81766 2.57533 -2.11638
thorax 1.17315 1.33208 -2.7045
lowerneck -13.9033 -3.0544 -10.048
upperneck 40.0873 2.68979 -9.6218
head 17.3695 -1.81354 -2.14744
rclavicle 9.14409e-015 4.77083e-015
rhumerus -18.5085 6.37624 -65.037
rradius 120.586
rwrist -11.1858
rhand -25.0384 -17.3686
rfingers 7.12502
rthumb 1.4745 -47.3433
lclavicle 9.14409e-015 4.77083e-015
lhumerus -43.4777 -15.3497 89.5544
lradius 37.2313
lwrist -13.3947
lhand -38.6542 6.92759
lfingers 7.12502
lthumb -11.6702 36.5826
rfemur 11.7789 -8.21108 16.9768
rtibia 44.3612
rfoot 0.625605 8.33356
rtoes -16.9007
lfemur -17.7669 7.84768 -9.09769
ltibia 37.0403
lfoot -22.1634 -9.89348
ltoes -4.89043
66
root 3.31381 16.7442 -28.7795 -0.52801 -10.5746 -5.98544
lowerback 9.03289 1.84015 0.281649
upperback 5.99931 2.43562 -2.26639
thorax 1.27404 1.25833 -2.68672
lowerneck -13.8041 -3.06285 -10.2509
upperneck 39.854 2.81301 -9.88592
head 17.237 -1.81404 -2.19403
rclavicle -2.78299e-015 1.74931e-014
rhumerus -18.5085 6.37624 -65.037
rradius 120.586
rwrist -11.1858
rhand -25.0384 -17.3686
rfingers 7.12502
rthumb 1.4745 -47.3433
lclavicle -2.78299e-015 1.74931e-014
lhumerus -43.1542 -15.7566 89.4048
lradius 37.3705
lwrist -13.3642
lhand -38.4128 6.6286
lfingers 7.12502
lthumb -11.4374 36.2966
rfemur 9.905 -8.85439 16.7984
rtibia 48.06
rfoot 2.76501 7.78807
rtoes -15.5251
lfemur -17.3113 7.52042 -9.24144
ltibia 37.2263
lfoot -22.6384 -9.77165
ltoes -5.25785
67
root 3.31605 16.7384 -28.6328 -0.66447 -10.338 -5.95971
lowerback 9.08106 1.78146 0.086823
upperback 6.23839 2.3472 -2.39287
thorax 1.49067 1.21335 -2.69932
lowerneck -13.7745 -3.10553 -10.7229
upperneck 39.7664 2.87538 -9.83831
head 17.195 -1.84691 -2.0745
rclavicle -1.39149e-014 -1.11319e-014
rhumerus -18.7994 6.06639 -64.9521
rradius 120.04
rwrist -9.26073
rhand -26.5083 -19.0418
rfingers 7.12502
rthumb 0.0548144 -49.0216
lclavicle -1.39149e-014 -1.11319e-014
lhumerus -42.8269 -16.3032 89.1795
lradius 37.5873
lwrist -13.537
lhand -38.2089 6.50291
lfingers 7.12502
lthumb -11.2408 36.1818
rfemur 8.12268 -9.44931 16.6618
rtibia 51.5478
rfoot 4.46584 6.9378
rtoes -11.8215
lfemur -16.8177 7.26273 -9.34084
ltibia 37.5061
lfoot -23.1754 -9.59081
ltoes -5.43043
68
root 3.31567 16.7262 -28.4917 -0.914226 -10.1335 -5.96248
lowerback 9.40519 1.73415 -0.00428827
upperback 6.39214 2.27527 -2.55588
thorax 1.47464 1.17831 -2.82096
lowerneck -13.463 -3.10454 -10.8564
upperneck 39.6041 2.97933 -10.1597
head 17.0505 -1.84995 -2.16286
rclavicle 3.4191e-014 -2.54444e-014
rhumerus -18.7994 6.06639 -64.9521
rradius 120.04
rwrist -9.26073
rhand -26.5083 -19.0418
rfingers 7.12502
rthumb 0.0548144 -49.0216
lclavicle -1.39149e-014 -1.11319e-014
lhumerus -42.8269 -16.3032 89.1795
lradius 37.5873
lwrist -13.537
lhand -38.2089 6.50291
lfingers 7.12502
lthumb -11.2408 36.1818
rfemur 6.57084 -9.82662 16.6085
rtibia 54.8419
rfoot 4.89044 6.04875
rtoes -9.13008
lfemur -16.2529 7.05327 -9.39014
ltibia 37.8564
lfoot -23.6989 -9.38501
ltoes -5.62859
69
root 3.31498 16.7091 -28.3522 -1.21971 -9.88528 -6.04298
lowerback 9.5654 1.62848 -0.133081
upperback 6.70233 2.12898 -2.66747
thorax 1.70468 1.10606 -2.85394
lowerneck -13.3892 -3.08546 -11.0132
upperneck 39.524 3.1153 -10.3497
head 17.0075 -1.83693 -2.19313
rclavicle 4.6118e-014 1.74931e-014
rhumerus -18.7994 6.06639 -64.9521
rradius 120.04
rwrist -9.26073
rhand -26.5083 -19.0418
rfingers 7.12502
rthumb 0.0548144 -49.0216
lclavicle 4.6118e-014 1.74931e-014
lhumerus -41.7767 -17.6089 88.6929
lradius 37.3044
lwrist -14.7499
lhand -38.0007 6.47343
lfingers 7.12502
lthumb -11.0399 36.1631
rfemur 5.10665 -10.08 16.8025
rtibia 57.9815
rfoot 3.28831 5.04273
rtoes -9.02131
lfemur -15.657 6.92713 -9.32989
ltibia 38.2608
lfoot -24.1957 -9.28642
ltoes -5.89475
70
root 3.31593 16.6874 -28.2101 -1.60131 -9.81085 -6.06634
lowerback 9.84948 1.57498 -0.209906
upperback 6.90989 2.05084 -2.80704
thorax 1.76688 1.06851 -2.95627
lowerneck -13.1198 -3.06661 -11.1703
upperneck 39.5228 3.2653 -10.6438
head 16.9664 -1.83201 -2.27087
rclavicle 2.38542e-014 3.33958e-014
rhumerus -19.1829 9.57647 -63.8085
rradius 116.977
rwrist -5.73475
rhand -26.7455 -20.1773
rfingers 7.12502
rthumb -0.174251 -50.1569
lclavicle 4.6118e-014 1.74931e-014
lhumerus -41.7767 -17.6089 88.6929
lradius 37.3044
lwrist -14.7499
lhand -38.0007 6.47343
lfingers 7.12502
lthumb -11.0399 36.1631
rfemur 3.70795 -10.4976 16.7662
rtibia 60.937
rfoot 0.552536 4.43597
rtoes -10.7194
lfemur -14.9032 6.64969 -9.33043
ltibia 38.6555
lfoot -24.8564 -8.87841
ltoes -6.27482
71
root 3.31517 16.6625 -28.0692 -1.89718 -9.71787 -6.20528
lowerback 10.0525 1.50278 -0.173641
upperback 7.06072 1.95714 -2.9415
thorax 1.81696 1.02683 -3.11383
lowerneck -12.8403 -2.97805 -11.1359
upperneck 39.62 3.44719 -10.8821
head 16.9685 -1.78444 -2.35706
rclavicle 6.36111e-015 1.11319e-014
rhumerus -19.2669 12.0419 -63.2463
rradius 115.362
rwrist -5.05187
rhand -26.7077 -20.2475
rfingers 7.12502
rthumb -0.137772 -50.2272
lclavicle 4.6118e-014 1.74931e-014
lhumerus -41.7767 -17.6089 88.6929
lradius 37.3044
lwrist -14.7499
lhand -38.0007 6.47343
lfingers 7.12502
lthumb -11.0399 36.1631
rfemur 2.16667 -10.6749 17.0796
rtibia 63.7065
rfoot -1.59816 3.98443
rtoes -10.6984
lfemur -14.2613 6.47429 -9.22717
ltibia 39.0252
lfoot -25.4263 -8.50484
ltoes -6.58043
72
root 3.318 16.6394 -27.9229 -2.28646 -9.7669 -6.27758
lowerback 10.1917 1.47477 -0.136532
upperback 7.26394 1.92449 -3.0745
thorax 1.96027 1.01681 -3.27282
lowerneck -12.5555 -2.91892 -11.1472
upperneck 39.7974 3.61971 -11.1459
head 17.0187 -1.75541 -2.45667
rclavicle 1.74931e-014 -1.74931e-014
rhumerus -19.2226 14.9588 -62.5911
rradius 113.757
rwrist -4.61316
rhand -26.4564 -20.6201
rfingers 7.12502
rthumb 0.104942 -50.5998
lclavicle 4.6118e-014 1.74931e-014
lhumerus -41.7767 -17.6089 88.6929
lradius 37.3044
lwrist -14.7499
lhand -38.0007 6.47343
lfingers 7.12502
lthumb -11.0399 36.1631
rfemur 0.705685 -10.8265 17.2548
rtibia 66.2191
rfoot -3.23776 3.70301
rtoes -11.3192
lfemur -13.402 6.02947 -9.20225
ltibia 39.3565
lfoot -26.0829 -7.85267
ltoes -6.80598
73
root 3.31989 16.6119 -27.7882 -2.54649 -9.62857 -6.29135
lowerback 10.2464 1.39594 -0.294868
upperback 7.44592 1.81112 -3.08333
thorax 2.11083 0.956105 -3.18334
lowerneck -12.3738 -2.89943 -11.4324
upperneck 40.178 3.83465 -11.3248
head 17.218 -1.75476 -2.48567
rclavicle 5.12864e-014 -3.18055e-014
rhumerus -18.946 18.2624 -61.6187
rradius 112.429
rwrist -5.28314
rhand -26.0728 -21.0888
rfingers 7.12502
rthumb 0.475458 -51.068
lclavicle 4.6118e-014 1.74931e-014
lhumerus -41.7767 -17.6089 88.6929
lradius 37.3044
lwrist -14.7499
lhand -38.0007 6.47343
lfingers 7.12502
lthumb -11.0399 36.1631
rfemur -0.948383 -11.2266 17.3711
rtibia 68.4659
rfoot -4.37362 3.60377
rtoes -11.7398
lfemur -12.7942 5.8162 -9.24231
ltibia 39.6777
lfoot -26.7259 -7.55703
ltoes -6.87592
74
root 3.31967 16.5842 -27.6537 -2.87961 -9.53263 -6.31534
lowerback 10.5247 1.3488 -0.35517
upperback 7.50485 1.73909 -3.20772
thorax 2.0207 0.920364 -3.2808
lowerneck -12.0787 -2.86889 -11.2591
upperneck 40.5641 3.95935 -11.6428
head 17.3864 -1.73782 -2.67173
rclavicle -1.90833e-014 6.36111e-015
rhumerus -18.8724 21.2858 -60.9882
rradius 111.515
rwrist -6.99123
rhand -25.2526 -21.3316
rfingers 7.12502
rthumb 1.26758 -51.3076
lclavicle 4.6118e-014 1.74931e-014
lhumerus -41.7767 -17.6089 88.6929
lradius 37.3044
lwrist -14.7499
lhand -38.0007 6.47343
lfingers 7.12502
lthumb -11.0399 36.1631
rfemur -2.52484 -11.3323 17.6221
rtibia 70.4106
rfoot -5.06345 3.40085
rtoes -11.3101
lfemur -12.0553 5.546 -9.27393
ltibia 39.9603
lfoot -27.4207 -7.1371
ltoes -6.90681
75
root 3.31584 16.5587 -27.5148 -3.07762 -9.3946 -6.5004
lowerback 10.5574 1.28105 -0.468601
upperback 7.60229 1.64191 -3.11664
thorax 2.09345 0.865869 -3.11348
lowerneck -11.8157 -2.87152 -11.4173
upperneck 40.855 4.06762 -11.8188
head 17.5109 -1.75376 -2.73243
rclavicle 1.63003e-014 -1.27222e-014
rhumerus -18.5112 24.068 -60.076
rradius 111.055
rwrist -9.06179
rhand -23.9011 -21.1822
rfingers 7.12502
rthumb 2.57286 -51.1465
lclavicle 4.6118e-014 1.74931e-014
lhumerus -41.7767 -17.6089 88.6929
lradius 37.3044
lwrist -14.7499
lhand -38.0007 6.47343
lfingers 7.12502
lthumb -11.0399 36.1631
rfemur -4.15734 -11.6837 18.0657
rtibia 72.0265
rfoot -6.02476 3.48338
rtoes -11.8058
lfemur -11.4281 5.21979 -9.10844
ltibia 40.2646
lfoot -28.1438 -6.80468
ltoes -6.94299
76
root 3.31833 16.532 -27.3702 -3.46907 -9.53504 -6.37064
lowerback 10.6392 1.30105 -0.552003
upperback 7.77872 1.66445 -3.29625
thorax 2.24105 0.879726 -3.25702
lowerneck -11.5787 -2.89945 -11.6407
upperneck 41.003 3.94954 -11.537
head 17.5171 -1.80449 -2.58988
rclavicle -2.46493e-014 4.6118e-014
rhumerus -18.1574 26.0402 -59.5004
rradius 111.043
rwrist -11.8414
rhand -22.7545 -20.8864
rfingers 7.12502
rthumb 3.68022 -50.8343
lclavicle 4.6118e-014 1.74931e-014
lhumerus -41.7767 -17.6089 88.6929
lradius 37.3044
lwrist -14.7499
lhand -38.0007 6.47343
lfingers 7.12502
lthumb -11.0399 36.1631
rfemur -5.54194 -11.7298 18.0724
rtibia 73.3418
rfoot -6.91802 3.89964
rtoes -12.7796
lfemur -10.5158 4.80508 -9.34668
ltibia 40.5472
lfoot -28.8278 -6.07207
ltoes -7.06383
77
root 3.31987 16.5 -27.2313 -3.80362 -9.51387 -6.57499
lowerback 10.6587 1.2781 -0.383399
upperback 7.9828 1.65259 -3.31947
thorax 2.45201 0.883671 -3.37449
lowerneck -11.3906 -3.00641 -11.8135
upperneck 41.1772 3.74546 -11.3434
head 17.5557 -1.89601 -2.51603
rclavicle 2.38542e-015 1.59028e-015
rhumerus -18.1574 26.0402 -59.5004
rradius 111.043
rwrist -11.8414
rhand -22.7545 -20.8864
rfingers 7.12502
rthumb 3.68022 -50.8343
lclavicle 4.6118e-014 1.74931e-014
lhumerus -41.7767 -17.6089 88.6929
lradius 37.3044
lwrist -14.7499
lhand -38.0007 6.47343
lfingers 7.12502
lthumb -11.0399 36.1631
rfemur -6.95888 -12.0141 18.501
rtibia 74.401
rfoot -7.98478 4.17715
rtoes -12.486
lfemur -9.74039 4.57625 -9.18623
ltibia 40.8233
lfoot -29.3527 -5.699
ltoes -7.1961
